<?xml version="1.0" encoding="UTF-8" standalone="no"?>
<svg
   xmlns:dc="http://purl.org/dc/elements/1.1/"
   xmlns:cc="http://creativecommons.org/ns#"
   xmlns:rdf="http://www.w3.org/1999/02/22-rdf-syntax-ns#"
   xmlns:svg="http://www.w3.org/2000/svg"
   xmlns="http://www.w3.org/2000/svg"
   xmlns:xlink="http://www.w3.org/1999/xlink"
   xmlns:sodipodi="http://sodipodi.sourceforge.net/DTD/sodipodi-0.dtd"
   xmlns:inkscape="http://www.inkscape.org/namespaces/inkscape"
   width="16"
   height="16"
   viewBox="0 0 16 16"
   version="1.1"
   id="svg16"
   sodipodi:docname="world.svg"
   inkscape:version="0.92.4 (5da689c313, 2019-01-14)">
  <metadata
     id="metadata20">
    <rdf:RDF>
      <cc:Work
         rdf:about="">
        <dc:format>image/svg+xml</dc:format>
        <dc:type
           rdf:resource="http://purl.org/dc/dcmitype/StillImage" />
      </cc:Work>
    </rdf:RDF>
  </metadata>
  <sodipodi:namedview
     pagecolor="#ffffff"
     bordercolor="#666666"
     borderopacity="1"
     objecttolerance="10"
     gridtolerance="10"
     guidetolerance="10"
     inkscape:pageopacity="0"
     inkscape:pageshadow="2"
     inkscape:window-width="1280"
     inkscape:window-height="657"
     id="namedview18"
     showgrid="false"
     inkscape:snap-text-baseline="false"
     inkscape:snap-page="false"
     showguides="false"
     inkscape:zoom="14.75"
     inkscape:cx="-3.0169492"
     inkscape:cy="8"
     inkscape:window-x="-8"
     inkscape:window-y="-8"
     inkscape:window-maximized="1"
     inkscape:current-layer="g14" />
  <defs
     id="defs3">
    <path
       id="a"
       d="M8 .667a7.333 7.333 0 1 0 0 14.666A7.333 7.333 0 0 0 8 .667zM7.55 14.11a6.437 6.437 0 0 1-3.775-1.808A6.233 6.233 0 0 1 1.89 7.828c0-1.522.543-2.961 1.539-4.106.025.303.089.627.073.858-.06.845-.145 1.374.359 2.086.196.278.244.676.34.997.092.314.465.48.722.673.52.39 1.015.845 1.565 1.189.363.227.59.34.484.775-.086.35-.11.566-.294.878-.056.095.212.707.302.795.27.266.54.51.835.75.457.371-.045.854-.263 1.388zm4.948-1.706a6.092 6.092 0 0 1-3.194 1.706 2.57 2.57 0 0 1 .756-1.02c.245-.191.551-.557.68-.847.127-.29.296-.541.468-.807.243-.38-.601-.95-.875-1.07-.616-.27-1.08-.634-1.627-1.022-.39-.276-1.182.145-1.622-.05-.603-.264-1.1-.726-1.625-1.123-.54-.41-.514-.89-.514-1.495.423.016 1.026-.118 1.307.225.09.108.394.592.599.42.167-.14-.124-.704-.18-.836-.173-.407.393-.566.683-.842.378-.36 1.19-.926 1.125-1.184-.064-.258-.811-.99-1.25-.876-.066.017-.645.63-.757.725l.009-.599c.002-.126-.234-.255-.223-.337.028-.205.596-.579.737-.742-.099-.063-.437-.355-.539-.312-.248.104-.527.175-.775.28a1.6 1.6 0 0 0-.022-.249 6.057 6.057 0 0 1 1.563-.457l.486.197.343.41.342.356.3.097.475-.452-.123-.322v-.29c.94.137 1.828.49 2.606 1.036-.14.012-.292.033-.465.055-.07-.042-.162-.061-.24-.091.225.488.46.97.7 1.451.254.515.82 1.067.92 1.61.116.64.035 1.222.1 1.975.061.726.81 1.55.81 1.55s.347.119.635.077a6.172 6.172 0 0 1-1.613 2.853z" />
  </defs>
  <g
     fill="none"
     fill-rule="evenodd"
     id="g14">
    <mask
       id="b"
       fill="#fff">
      <use
         xlink:href="#a"
         id="use5" />
    </mask>
    <use
       fill="#000"
       fill-rule="nonzero"
       xlink:href="#a"
       id="use8"
       style="fill:#4d4d4d" />
    <g
       fill="#959595"
       mask="url(#b)"
       id="g12">
      <path
         d="M0 0h16v16H0z"
         id="path10" />
    </g>
    <path
       style="fill:#595959;stroke-width:0.06779661;fill-opacity:1"
       d="M 7.0847458,15.2446 C 4.2233521,14.881139 1.7949988,12.795303 0.98694947,10.006894 0.01084235,6.638552 1.6155824,3.021878 4.779661,1.459091 c 3.6069817,-1.78154368 7.975178,-0.2955756 9.761248,3.32057 1.382852,2.7997763 0.8259,6.158615 -1.388367,8.372881 -1.182138,1.182139 -2.699537,1.911681 -4.3616525,2.097018 -0.7348698,0.08194 -1.0287153,0.08109 -1.7061437,-0.005 z M 7.7956339,13.696849 C 8.122322,13.049683 8.0933905,12.932939 7.4635715,12.35691 6.8567264,11.801893 6.6296236,11.386968 6.7673009,11.084799 6.936998,10.712355 7.0521325,10.113902 6.9870313,9.9426732 6.9514664,9.8491302 6.7300893,9.6431044 6.4950822,9.484838 6.1058239,9.2226908 5.1571154,8.505059 4.5303155,7.9986292 4.3397319,7.8446447 4.2554025,7.7052332 4.1724789,7.4070583 4.1128087,7.1924983 3.9368142,6.7645675 3.78138,6.4561012 L 3.4987723,5.8952532 3.513009,5.0662706 c 0.01428,-0.831503 -0.028367,-1.339171 -0.1121885,-1.3354809 -0.092428,0.00407 -0.6575977,0.851882 -0.9098438,1.36486 -0.7492409,1.5236868 -0.8187282,3.4362045 -0.1832669,5.0441043 0.5763537,1.458342 1.6560055,2.629257 3.0825029,3.343069 0.6153276,0.307907 1.5713745,0.6099 1.9477941,0.615263 0.2424813,0.0035 0.2619607,-0.01362 0.4576271,-0.401237 z m 2.3562801,0.208558 c 1.615881,-0.562465 3.032996,-1.890518 3.682748,-3.451293 0.115885,-0.278368 0.226096,-0.6012015 0.244914,-0.7174069 0.03068,-0.1894779 0.016,-0.2122983 -0.142268,-0.2211193 C 13.563818,9.4947722 13.45152,9.4194447 13.172275,9.0024183 13.015332,8.7680373 12.850036,8.4847458 12.804953,8.3728814 12.759869,8.2610169 12.700799,7.6813559 12.673685,7.0847458 12.646573,6.4881356 12.585658,5.8932203 12.538321,5.7627119 12.490984,5.6322034 12.308418,5.3110736 12.132618,5.0490902 11.85998,4.6427964 11.050847,3.1236584 11.050847,3.0180784 c 0,-0.019265 0.137289,-0.035028 0.305085,-0.035028 0.167797,0 0.305085,-0.02417 0.305085,-0.05371 0,-0.087989 -0.814041,-0.5371983 -1.315607,-0.7259874 C 10.088784,2.1067595 9.6848969,1.9870791 9.4478834,1.9373969 l -0.4309342,-0.090331 0.00104,0.2120604 c 5.424e-4,0.1166333 0.029852,0.2576373 0.065069,0.3133424 0.047226,0.074702 0.00788,0.1592157 -0.1499308,0.3220339 C 8.8154494,2.8159162 8.6733755,2.9152545 8.617408,2.9152545 8.561441,2.9152545 8.312027,2.7038137 8.0631552,2.445386 7.7159119,2.0848123 7.5516014,1.964438 7.3567675,1.927887 7.0743225,1.8749 6.5331519,1.9771835 5.983929,2.1873592 5.6926732,2.2988164 5.6271186,2.3533137 5.6271186,2.4839853 c 0,0.088045 0.00763,0.1600671 0.016949,0.1600483 0.00932,-1.88e-5 0.1774459,-0.061036 0.3736086,-0.1355932 C 6.456373,2.3417006 6.5648341,2.3410563 6.7767737,2.5039304 L 6.9433784,2.6319671 6.5903332,2.949385 C 6.2183392,3.2838393 6.1730245,3.3876904 6.3389831,3.5254237 6.4069431,3.5818256 6.440678,3.7341871 6.440678,3.9847231 v 0.3749 L 6.8424246,3.9764217 C 7.0633852,3.7656609 7.2749584,3.5932203 7.3125873,3.5932203 c 0.2837002,0 0.9033842,0.442332 1.0693747,0.7633223 L 8.4886556,4.5628654 7.9900902,5.0336016 C 7.71588,5.2925066 7.302843,5.6399972 7.0722311,5.8058031 6.8416192,5.9716089 6.6411188,6.1594041 6.6266746,6.2231256 6.6122304,6.2868472 6.6559976,6.4850277 6.723935,6.6635268 6.9761516,7.3262015 6.8261994,7.5224698 6.4254182,7.0542473 6.2993498,6.9069646 6.1119355,6.7544222 6.0089421,6.7152642 5.824746,6.6452329 5.0014654,6.6143538 4.9406248,6.6751944 4.8578193,6.7579999 5.0075803,7.6841627 5.1309867,7.8524441 5.3112009,8.0981905 6.322864,8.9093803 6.7665304,9.1638854 7.1242998,9.3691166 7.1302742,9.3700007 7.8512759,9.3244136 L 8.5762712,9.2785746 8.9830508,9.574959 c 0.3967065,0.2890448 1.0226402,0.673156 1.4156312,0.86872 0.351894,0.175112 0.787759,0.606876 0.787759,0.780347 0,0.266874 -0.664048,1.352233 -1.064895,1.740526 -0.3666884,0.355205 -0.7033209,0.791429 -0.7859704,1.018499 -0.063154,0.173508 0.1542102,0.152834 0.8163384,-0.07764 z"
       id="path4530"
       inkscape:connector-curvature="0"
       inkscape:export-xdpi="657.33746"
       inkscape:export-ydpi="657.33746" />
  </g>
</svg>
